<svg xmlns="http://www.w3.org/2000/svg" version="1.1" xmlns:xlink="http://www.w3.org/1999/xlink" xmlns:svgjs="http://svgjs.com/svgjs" width="1440" height="560" preserveAspectRatio="none" viewBox="0 0 1440 560">
    <g mask="url(&quot;#SvgjsMask1002&quot;)" fill="none">
        <rect width="1440" height="560" x="0" y="0" fill="url(#SvgjsLinearGradient1003)"></rect>
        <path d="M1440 0L1326.61 0L1440 233.05z" fill="rgba(255, 255, 255, .1)"></path>
        <path d="M1326.61 0L1440 233.05L1440 353.21000000000004L1196.98 0z" fill="rgba(255, 255, 255, .075)"></path>
        <path d="M1196.98 0L1440 353.21000000000004L1440 403.67L1111.26 0z" fill="rgba(255, 255, 255, .05)"></path>
        <path d="M1111.26 0L1440 403.67L1440 445.72L531.48 0z" fill="rgba(255, 255, 255, .025)"></path>
        <path d="M0 560L123.06 560L0 373.21000000000004z" fill="rgba(0, 0, 0, .1)"></path>
        <path d="M0 373.21000000000004L123.06 560L313.65 560L0 183.49000000000004z" fill="rgba(0, 0, 0, .075)"></path>
        <path d="M0 183.49L313.65 560L895.16 560L0 80.57000000000001z" fill="rgba(0, 0, 0, .05)"></path>
        <path d="M0 80.57L895.16 560L1015.61 560L0 53.80999999999999z" fill="rgba(0, 0, 0, .025)"></path>
    </g>
    <defs>
        <mask id="SvgjsMask1002">
            <rect width="1440" height="560" fill="#ffffff"></rect>
        </mask>
        <linearGradient x1="15.28%" y1="-39.29%" x2="84.72%" y2="139.29%" gradientUnits="userSpaceOnUse" id="SvgjsLinearGradient1003">
            <stop stop-color="#0e2a47" offset="0"></stop>
            <stop stop-color="#00459e" offset="1"></stop>
        </linearGradient>
    </defs>
</svg>